<svg width="1400" height="420" viewBox="0 0 1400 420" fill="none" xmlns="http://www.w3.org/2000/svg">
  <defs>
    <linearGradient id="bg" x1="0" y1="0" x2="1400" y2="420" gradientUnits="userSpaceOnUse">
      <stop stop-color="#020403"/>
      <stop offset="0.46" stop-color="#07110B"/>
      <stop offset="1" stop-color="#010201"/>
    </linearGradient>
    <linearGradient id="glass" x1="870" y1="56" x2="1308" y2="360" gradientUnits="userSpaceOnUse">
      <stop stop-color="#142018" stop-opacity="0.93"/>
      <stop offset="1" stop-color="#070A08" stop-opacity="0.98"/>
    </linearGradient>
    <linearGradient id="chart" x1="958" y1="272" x2="1248" y2="160" gradientUnits="userSpaceOnUse">
      <stop stop-color="#00FF66" stop-opacity="0.08"/>
      <stop offset="1" stop-color="#00FF66" stop-opacity="0.55"/>
    </linearGradient>
    <radialGradient id="glow" cx="0" cy="0" r="1" gradientUnits="userSpaceOnUse" gradientTransform="translate(1120 184) rotate(150) scale(430 300)">
      <stop stop-color="#00FF66" stop-opacity="0.25"/>
      <stop offset="1" stop-color="#00FF66" stop-opacity="0"/>
    </radialGradient>
    <pattern id="grid" width="46" height="46" patternUnits="userSpaceOnUse">
      <path d="M46 0H0V46" stroke="#57FF91" stroke-opacity="0.055"/>
    </pattern>
    <filter id="shadow" x="-20%" y="-20%" width="140%" height="160%">
      <feDropShadow dx="0" dy="22" stdDeviation="24" flood-color="#000000" flood-opacity="0.72"/>
    </filter>
    <filter id="soft" x="-100%" y="-100%" width="300%" height="300%">
      <feGaussianBlur stdDeviation="10"/>
    </filter>
    <clipPath id="screenClip">
      <rect x="858" y="58" width="462" height="304" rx="24"/>
    </clipPath>
  </defs>

  <rect width="1400" height="420" rx="30" fill="url(#bg)"/>
  <rect width="1400" height="420" rx="30" fill="url(#grid)"/>
  <rect width="1400" height="420" rx="30" fill="url(#glow)"/>
  <path d="M0 365C260 310 416 408 700 344C938 290 1114 312 1400 228V420H0V365Z" fill="#00FF66" fill-opacity="0.025"/>

  <g opacity="0.85">
    <circle cx="89" cy="72" r="4" fill="#00FF66"/>
    <circle cx="89" cy="72" r="13" fill="#00FF66" fill-opacity="0.20" filter="url(#soft)"/>
    <text x="108" y="79" fill="#B8C9BE" font-family="Inter, Arial, sans-serif" font-size="14" font-weight="700" letter-spacing="2.6">BUILDING THE OPERATING LAYER FOR MODERN BUSINESS</text>
  </g>

  <text x="84" y="151" fill="#F5FFF8" font-family="Inter, Arial, sans-serif" font-size="48" font-weight="760" letter-spacing="0.3">Christian Junior de Jesús</text>
  <text x="86" y="201" fill="#71FF9E" font-family="Inter, Arial, sans-serif" font-size="21" font-weight="700" letter-spacing="3.2">FOUNDER &amp; CEO · MERIDIAN</text>
  <text x="86" y="253" fill="#B4C2B9" font-family="Inter, Arial, sans-serif" font-size="20">AI-native SaaS · Product strategy · Secure systems · Integrations</text>

  <g>
    <rect x="86" y="296" width="172" height="44" rx="22" fill="#00FF66" fill-opacity="0.10" stroke="#00FF66" stroke-opacity="0.48"/>
    <circle cx="110" cy="318" r="5" fill="#00FF66"/>
    <text x="126" y="324" fill="#E7FFEE" font-family="Inter, Arial, sans-serif" font-size="15" font-weight="650">Santo Domingo, RD</text>

    <rect x="272" y="296" width="164" height="44" rx="22" fill="#FFFFFF" fill-opacity="0.035" stroke="#FFFFFF" stroke-opacity="0.10"/>
    <text x="301" y="324" fill="#CFD8D2" font-family="Inter, Arial, sans-serif" font-size="15" font-weight="650">AI-native SaaS</text>
  </g>

  <g filter="url(#shadow)">
    <rect x="838" y="38" width="502" height="344" rx="30" fill="#030504" stroke="#FFFFFF" stroke-opacity="0.10"/>
    <rect x="858" y="58" width="462" height="304" rx="24" fill="url(#glass)"/>
    <g clip-path="url(#screenClip)">
      <rect x="858" y="58" width="462" height="304" fill="#070A08"/>
      <rect x="858" y="58" width="462" height="304" fill="url(#glow)" opacity="0.65"/>

      <rect x="858" y="58" width="88" height="304" fill="#050706"/>
      <circle cx="885" cy="88" r="11" stroke="#00FF66" stroke-opacity="0.8"/>
      <path d="M878 93C881 83 889 83 892 93" stroke="#00FF66" stroke-width="1.8" stroke-linecap="round"/>
      <line x1="885" y1="77" x2="885" y2="99" stroke="#B9FFCE" stroke-opacity="0.7"/>
      <rect x="875" y="126" width="56" height="8" rx="4" fill="#00FF66" fill-opacity="0.80"/>
      <rect x="875" y="151" width="45" height="7" rx="3.5" fill="#FFFFFF" fill-opacity="0.12"/>
      <rect x="875" y="174" width="51" height="7" rx="3.5" fill="#FFFFFF" fill-opacity="0.10"/>
      <rect x="875" y="197" width="40" height="7" rx="3.5" fill="#FFFFFF" fill-opacity="0.10"/>
      <rect x="875" y="220" width="48" height="7" rx="3.5" fill="#FFFFFF" fill-opacity="0.10"/>
      <rect x="875" y="322" width="50" height="7" rx="3.5" fill="#FFFFFF" fill-opacity="0.10"/>

      <text x="970" y="92" fill="#F6FFF8" font-family="Inter, Arial, sans-serif" font-size="18" font-weight="700">Meridian Overview</text>
      <text x="970" y="113" fill="#8FA098" font-family="Inter, Arial, sans-serif" font-size="10">Unified business workspace</text>
      <circle cx="1276" cy="87" r="15" fill="#00FF66" fill-opacity="0.12" stroke="#00FF66" stroke-opacity="0.35"/>
      <circle cx="1276" cy="87" r="4" fill="#00FF66"/>

      <rect x="970" y="136" width="100" height="70" rx="13" fill="#FFFFFF" fill-opacity="0.035" stroke="#FFFFFF" stroke-opacity="0.08"/>
      <text x="985" y="159" fill="#91A098" font-family="Inter, Arial, sans-serif" font-size="9">ACTIVE DEALS</text>
      <text x="985" y="190" fill="#F1FFF5" font-family="Inter, Arial, sans-serif" font-size="25" font-weight="700">24</text>
      <text x="1035" y="189" fill="#00FF66" font-family="Inter, Arial, sans-serif" font-size="9">+18%</text>

      <rect x="1082" y="136" width="100" height="70" rx="13" fill="#FFFFFF" fill-opacity="0.035" stroke="#FFFFFF" stroke-opacity="0.08"/>
      <text x="1097" y="159" fill="#91A098" font-family="Inter, Arial, sans-serif" font-size="9">AI ACTIONS</text>
      <text x="1097" y="190" fill="#F1FFF5" font-family="Inter, Arial, sans-serif" font-size="25" font-weight="700">184</text>
      <text x="1151" y="189" fill="#00FF66" font-family="Inter, Arial, sans-serif" font-size="9">LIVE</text>

      <rect x="1194" y="136" width="100" height="70" rx="13" fill="#FFFFFF" fill-opacity="0.035" stroke="#FFFFFF" stroke-opacity="0.08"/>
      <text x="1209" y="159" fill="#91A098" font-family="Inter, Arial, sans-serif" font-size="9">TASKS DONE</text>
      <text x="1209" y="190" fill="#F1FFF5" font-family="Inter, Arial, sans-serif" font-size="25" font-weight="700">92%</text>

      <rect x="970" y="220" width="211" height="118" rx="15" fill="#FFFFFF" fill-opacity="0.028" stroke="#FFFFFF" stroke-opacity="0.08"/>
      <text x="986" y="243" fill="#DCE8E0" font-family="Inter, Arial, sans-serif" font-size="11" font-weight="650">Business activity</text>
      <path d="M987 313C1012 301 1020 306 1041 285C1060 266 1070 286 1089 272C1109 257 1122 263 1138 246C1153 231 1165 238 1171 234" stroke="#00FF66" stroke-width="3" stroke-linecap="round" stroke-linejoin="round"/>
      <path d="M987 313C1012 301 1020 306 1041 285C1060 266 1070 286 1089 272C1109 257 1122 263 1138 246C1153 231 1165 238 1171 234V322H987V313Z" fill="url(#chart)"/>
      <line x1="987" y1="322" x2="1168" y2="322" stroke="#FFFFFF" stroke-opacity="0.08"/>

      <rect x="1194" y="220" width="100" height="118" rx="15" fill="#00FF66" fill-opacity="0.07" stroke="#00FF66" stroke-opacity="0.18"/>
      <text x="1208" y="244" fill="#DFFFF0" font-family="Inter, Arial, sans-serif" font-size="11" font-weight="650">AI Insight</text>
      <circle cx="1215" cy="270" r="7" fill="#00FF66"/>
      <rect x="1229" y="264" width="48" height="7" rx="3.5" fill="#FFFFFF" fill-opacity="0.28"/>
      <rect x="1208" y="287" width="66" height="6" rx="3" fill="#FFFFFF" fill-opacity="0.12"/>
      <rect x="1208" y="300" width="55" height="6" rx="3" fill="#FFFFFF" fill-opacity="0.10"/>
      <rect x="1208" y="318" width="70" height="8" rx="4" fill="#00FF66" fill-opacity="0.26"/>
    </g>
  </g>

  <rect x="1008" y="381" width="164" height="8" rx="4" fill="#111713"/>
  <rect x="972" y="389" width="236" height="7" rx="3.5" fill="#070A08"/>
</svg>
